<svg width="245" height="245" viewBox="0 0 245 245" fill="none" xmlns="http://www.w3.org/2000/svg">
<path d="M57.161 172.558L62.8436 171.135C63.3157 171.01 63.704 170.99 64.0087 171.075C64.3133 171.159 64.5759 171.341 64.7964 171.622C64.9384 171.803 65.0425 171.995 65.1087 172.197C65.1748 172.399 65.1956 172.602 65.171 172.806L64.6073 172.867C64.6484 172.527 64.5642 172.224 64.3549 171.957C64.2204 171.786 64.0588 171.678 63.8701 171.634C63.6776 171.584 63.426 171.597 63.1151 171.672L62.6218 171.793L60.1884 176.416L59.7735 175.887L61.8571 171.966L57.5534 173.058L57.161 172.558Z" fill="#2A2A42"/>
<path d="M57.0818 164.171C57.3223 164.563 57.4513 164.97 57.4688 165.393C57.4812 165.818 57.3854 166.218 57.1813 166.592C56.9772 166.965 56.6764 167.274 56.279 167.518C55.8816 167.761 55.47 167.889 55.0444 167.902C54.6188 167.914 54.2217 167.817 53.8532 167.609C53.4847 167.402 53.1802 167.102 52.9397 166.71C52.6992 166.318 52.5701 165.911 52.5526 165.488C52.535 165.066 52.6299 164.67 52.8371 164.302C53.0412 163.928 53.342 163.619 53.7394 163.376C54.1369 163.132 54.5484 163.004 54.974 162.991C55.3964 162.974 55.7945 163.067 56.1682 163.271C56.5367 163.479 56.8413 163.778 57.0818 164.171ZM56.594 164.47C56.4168 164.181 56.194 163.962 55.9258 163.814C55.6492 163.664 55.35 163.599 55.0283 163.619C54.7066 163.638 54.3909 163.743 54.0812 163.933C53.7715 164.123 53.5349 164.357 53.3715 164.634C53.208 164.912 53.1329 165.207 53.1463 165.518C53.1513 165.828 53.2425 166.127 53.4197 166.416C53.5969 166.705 53.8238 166.924 54.1004 167.074C54.3687 167.222 54.6653 167.289 54.9901 167.275C55.3118 167.255 55.6275 167.15 55.9372 166.96C56.2469 166.77 56.4835 166.537 56.647 166.259C56.8073 165.976 56.8849 165.68 56.8799 165.37C56.8665 165.059 56.7712 164.759 56.594 164.47Z" fill="#2A2A42"/>
<path d="M47.2055 156.085L51.5511 154.102L51.8075 154.664L51.0144 155.026C51.3492 155.059 51.6525 155.177 51.9244 155.379C52.1908 155.583 52.4032 155.859 52.5616 156.206C52.8205 156.773 52.8684 157.294 52.7053 157.768C52.5342 158.239 52.1429 158.613 51.5316 158.892L49.0118 160.043L48.744 159.456L51.206 158.332C51.6632 158.124 51.9586 157.852 52.0924 157.518C52.2261 157.185 52.1975 156.808 52.0064 156.39C51.7978 155.933 51.4954 155.635 51.0993 155.496C50.6978 155.36 50.2491 155.405 49.7534 155.631L47.4732 156.672L47.2055 156.085Z" fill="#2A2A42"/>
<path d="M43.7708 143.99C43.4228 143.921 43.1336 143.762 42.9031 143.514C42.6711 143.26 42.5016 142.919 42.3944 142.49L43.0024 142.338L43.031 142.49C43.1528 142.978 43.398 143.322 43.7665 143.523C44.135 143.724 44.5895 143.758 45.1299 143.623L47.4912 143.033L47.6475 143.658L43.013 144.816L42.8633 144.217L43.7708 143.99Z" fill="#2A2A42"/>
<path d="M43.1839 132.791L43.7337 136.749C44.2204 136.644 44.593 136.4 44.8513 136.016C45.1037 135.632 45.1937 135.18 45.1212 134.658C45.0804 134.364 44.9919 134.101 44.8558 133.87C44.7137 133.639 44.5282 133.448 44.2994 133.296L44.6632 132.879C44.9442 133.054 45.1727 133.291 45.3488 133.59C45.524 133.884 45.6379 134.22 45.6904 134.597C45.7578 135.083 45.7159 135.529 45.5645 135.935C45.4062 136.336 45.1588 136.667 44.8221 136.928C44.4855 137.188 44.0863 137.351 43.6245 137.415C43.1628 137.479 42.7352 137.438 42.3419 137.29C41.9478 137.137 41.6246 136.901 41.3724 136.582C41.1194 136.256 40.9625 135.874 40.9017 135.437C40.8409 134.999 40.8883 134.592 41.0438 134.216C41.1994 133.84 41.4464 133.527 41.7847 133.279C42.117 133.031 42.5171 132.874 42.9848 132.809L43.1839 132.791ZM41.4504 135.361C41.5137 135.816 41.7139 136.18 42.0511 136.451C42.3814 136.717 42.7834 136.838 43.2569 136.815L42.7909 133.46C42.329 133.567 41.9758 133.796 41.7312 134.148C41.4799 134.495 41.3863 134.899 41.4504 135.361Z" fill="#2A2A42"/>
<path d="M39.9107 125.945C39.8974 125.321 40.0447 124.84 40.3524 124.5C40.654 124.161 41.1105 123.985 41.7219 123.972L44.6818 123.909L44.6949 124.526L43.9504 124.542C44.2016 124.682 44.3999 124.893 44.5451 125.174C44.6903 125.45 44.7669 125.781 44.7751 126.169C44.7864 126.701 44.6683 127.128 44.4207 127.448C44.1732 127.768 43.8406 127.933 43.4229 127.941C43.0174 127.95 42.6874 127.812 42.4331 127.526C42.1786 127.235 42.0446 126.769 42.031 126.127L41.9989 124.611L41.7083 124.617C41.2967 124.626 40.9874 124.747 40.7804 124.982C40.5674 125.216 40.4656 125.555 40.4749 125.996C40.4814 126.299 40.539 126.589 40.6478 126.865C40.7505 127.141 40.8918 127.377 41.0716 127.573L40.5965 127.874C40.3856 127.636 40.222 127.349 40.1059 127.013C39.9837 126.676 39.9186 126.32 39.9107 125.945ZM44.2646 126.08C44.2569 125.716 44.1685 125.406 43.9996 125.15C43.8246 124.893 43.5784 124.704 43.2609 124.584L42.4801 124.6L42.5118 126.099C42.5292 126.916 42.8223 127.318 43.3913 127.306C43.6697 127.3 43.8884 127.19 44.0474 126.974C44.2002 126.759 44.2726 126.461 44.2646 126.08Z" fill="#2A2A42"/>
<path d="M38.3906 113.237L45.0938 113.926L45.0307 114.54L44.0912 114.444C44.3906 114.669 44.6082 114.95 44.744 115.287C44.8805 115.617 44.9283 115.981 44.8874 116.379C44.8416 116.825 44.6978 117.218 44.4559 117.558C44.214 117.898 43.8988 118.152 43.5104 118.319C43.122 118.486 42.6929 118.545 42.2231 118.497C41.7534 118.449 41.3453 118.303 40.999 118.061C40.6526 117.818 40.3986 117.506 40.237 117.124C40.0694 116.742 40.0085 116.328 40.0542 115.882C40.0939 115.497 40.2107 115.159 40.4049 114.868C40.5937 114.571 40.8519 114.339 41.1794 114.172L38.3247 113.879L38.3906 113.237ZM44.3239 116.266C44.3579 115.935 44.3132 115.629 44.1899 115.349C44.0612 115.061 43.863 114.828 43.5954 114.648C43.3284 114.463 43.0143 114.351 42.6529 114.314C42.2915 114.277 41.9613 114.322 41.6621 114.45C41.3636 114.571 41.1251 114.76 40.9467 115.015C40.7629 115.264 40.654 115.554 40.6199 115.886C40.5853 116.223 40.6323 116.535 40.7611 116.822C40.8844 117.103 41.0796 117.336 41.3465 117.521C41.6141 117.701 41.9286 117.809 42.29 117.847C42.6513 117.884 42.9813 117.842 43.2798 117.72C43.579 117.593 43.8205 117.404 44.0043 117.155C44.1827 116.9 44.2892 116.603 44.3239 116.266Z" fill="#2A2A42"/>
<path d="M42.4324 101.631L42.609 101.011L47.2032 102.319L47.0266 102.939L42.4324 101.631ZM41.5175 101.03C41.481 101.159 41.4066 101.254 41.2944 101.316C41.1822 101.379 41.065 101.393 40.9427 101.358C40.8262 101.325 40.7368 101.252 40.6743 101.14C40.6118 101.027 40.5988 100.907 40.6353 100.779C40.6718 100.651 40.7461 100.556 40.8584 100.493C40.9648 100.429 41.0762 100.414 41.1926 100.447C41.3207 100.483 41.416 100.558 41.4785 100.67C41.541 100.782 41.554 100.902 41.5175 101.03Z" fill="#2A2A42"/>
<path d="M49.4259 94.4674C49.4843 94.6194 49.5093 94.7911 49.5009 94.9824C49.489 95.1658 49.4483 95.348 49.379 95.5289C49.2188 95.9473 48.9822 96.2263 48.6695 96.3658C48.3567 96.5053 47.9939 96.496 47.5812 96.3379L44.8844 95.3048L44.579 96.102L44.0702 95.9071L44.3755 95.1099L43.4003 94.7363L43.6309 94.1342L44.6062 94.5078L45.126 93.1509L45.6348 93.3458L45.115 94.7027L47.7779 95.7228C48.0437 95.8246 48.2721 95.8375 48.4633 95.7616C48.6509 95.6779 48.7924 95.5117 48.8877 95.2629C48.9354 95.1385 48.9611 95.0122 48.9648 94.884C48.9707 94.7501 48.9531 94.6267 48.9121 94.5137L49.4259 94.4674Z" fill="#2A2A42"/>
<path d="M51.0513 82.5005C50.8521 82.207 50.7576 81.8909 50.7678 81.5523C50.7812 81.2085 50.9003 80.8464 51.1252 80.4659L51.6646 80.7848L51.5782 80.9131C51.3225 81.3457 51.2552 81.763 51.3762 82.1651C51.4972 82.5672 51.7974 82.9099 52.2769 83.1934L54.3721 84.4319L54.044 84.9869L49.9318 82.5562L50.2461 82.0245L51.0513 82.5005Z" fill="#2A2A42"/>
<path d="M53.9489 76.0029L54.3241 75.4785L58.2091 78.258L57.8339 78.7824L53.9489 76.0029ZM53.2898 75.1293C53.2123 75.2376 53.1102 75.3023 52.9835 75.3233C52.8568 75.3444 52.7417 75.3179 52.6383 75.2439C52.5399 75.1734 52.4801 75.0749 52.4591 74.9482C52.4381 74.8215 52.4663 74.7039 52.5438 74.5956C52.6213 74.4873 52.7234 74.4226 52.8501 74.4016C52.9719 74.3771 53.082 74.4 53.1805 74.4705C53.2888 74.548 53.3535 74.6501 53.3745 74.7768C53.3955 74.9035 53.3673 75.021 53.2898 75.1293Z" fill="#2A2A42"/>
<path d="M60.8093 67.2562L63.9518 70.0363C64.5594 70.5739 64.8759 71.1207 64.9014 71.6767C64.9354 72.2322 64.6876 72.8092 64.158 73.4078C63.8652 73.7388 63.5365 74.0098 63.172 74.2209C62.816 74.4314 62.4696 74.5533 62.1328 74.5868L61.9821 74.017C62.2888 73.9811 62.5935 73.8788 62.8963 73.7102C63.2031 73.537 63.4768 73.3144 63.7175 73.0423C64.1187 72.5888 64.307 72.1613 64.2824 71.7596C64.2623 71.3619 64.0301 70.9665 63.5857 70.5734L63.13 70.1702C63.2244 70.5204 63.2222 70.8701 63.1234 71.2193C63.0287 71.5639 62.851 71.8836 62.5902 72.1784C62.2934 72.5139 61.95 72.7558 61.5602 72.9041C61.1699 73.0438 60.773 73.0766 60.3696 73.0026C59.9656 72.9201 59.5959 72.7304 59.2603 72.4336C58.9248 72.1367 58.6937 71.7949 58.5671 71.408C58.4445 71.0166 58.431 70.6207 58.5266 70.2203C58.6222 69.8198 58.8204 69.4496 59.1213 69.1095C59.3901 68.8056 59.694 68.5855 60.0331 68.4489C60.3721 68.3124 60.7235 68.2716 61.0871 68.3265L60.4001 67.7188L60.8093 67.2562ZM62.2038 71.7517C62.4325 71.4932 62.5847 71.2115 62.6604 70.9067C62.7316 70.5978 62.7175 70.2984 62.6183 70.0085C62.5231 69.7141 62.3485 69.4546 62.0946 69.2299C61.8406 69.0053 61.564 68.8656 61.2647 68.811C60.9649 68.7479 60.6683 68.7725 60.375 68.8848C60.0811 68.9885 59.8178 69.1719 59.5851 69.4349C59.3565 69.6934 59.2043 69.9751 59.1286 70.2799C59.0569 70.5803 59.0686 70.8776 59.1639 71.1721C59.2631 71.4619 59.4397 71.7192 59.6936 71.9439C59.9475 72.1685 60.2244 72.3124 60.5242 72.3756C60.828 72.4342 61.1269 72.4116 61.4208 72.3078C61.7142 72.1955 61.9752 72.0101 62.2038 71.7517Z" fill="#2A2A42"/>
<path d="M70.8358 61.2448C70.3849 61.6398 69.9117 61.8209 69.4162 61.7881C68.9201 61.7638 68.4526 61.5012 68.0138 61.0003L66.1888 58.9167L66.6738 58.4918L68.457 60.5276C68.7841 60.901 69.1268 61.1039 69.485 61.1362C69.8433 61.1685 70.1955 61.033 70.5416 60.7298C70.9287 60.3908 71.1344 60.0054 71.1587 59.5736C71.1824 59.1504 71.0167 58.7362 70.6617 58.3308L69.0102 56.4454L69.4952 56.0205L73.9352 61.0895L73.4501 61.5143L71.6071 59.4102C71.6586 59.7354 71.618 60.0567 71.4855 60.374C71.3529 60.6913 71.1364 60.9816 70.8358 61.2448Z" fill="#2A2A42"/>
<path d="M77.4859 58.3971C77.4493 58.5559 77.374 58.7121 77.26 58.866C77.1475 59.0114 77.012 59.1397 76.8533 59.2509C76.4864 59.5081 76.1344 59.607 75.797 59.5477C75.4597 59.4884 75.1642 59.2778 74.9105 58.9159L73.2528 56.5512L72.5538 57.0412L72.241 56.595L72.94 56.105L72.3405 55.2498L72.8685 54.8797L73.468 55.7349L74.6578 54.9008L74.9706 55.347L73.7808 56.181L75.4176 58.5161C75.581 58.7491 75.7631 58.8876 75.964 58.9316C76.1664 58.9672 76.3767 58.9085 76.5948 58.7556C76.7039 58.6791 76.7958 58.5888 76.8706 58.4846C76.9504 58.3769 77.0049 58.2648 77.0341 58.1482L77.4859 58.3971Z" fill="#2A2A42"/>
<path d="M81.6918 56.0046C81.5767 56.0716 81.4529 56.0876 81.3204 56.0526C81.1932 56.0145 81.0946 55.9353 81.0246 55.815C80.9545 55.6946 80.9359 55.5724 80.9687 55.4482C81.0037 55.3157 81.0788 55.216 81.1939 55.149C81.309 55.082 81.4328 55.066 81.5652 55.101C81.6947 55.1308 81.7944 55.2059 81.8644 55.3262C81.9345 55.4466 81.952 55.573 81.917 55.7054C81.882 55.8379 81.8069 55.9376 81.6918 56.0046Z" fill="#2A2A42"/>
<path d="M98.0173 41.7009L98.0274 48.4096L97.3565 48.6369L93.8534 44.0993L93.8214 49.8346L93.1591 50.059L89.0892 44.7259L89.7429 44.5044L93.2347 49.0937L93.278 43.3066L93.8715 43.1056L97.4065 47.709L97.4066 41.9078L98.0173 41.7009Z" fill="#2A2A42"/>
<path d="M108.354 43.5824L104.422 44.2915C104.546 44.7737 104.805 45.136 105.199 45.3787C105.593 45.6154 106.048 45.687 106.567 45.5935C106.859 45.5408 107.118 45.4418 107.344 45.2965C107.569 45.1452 107.752 44.9521 107.895 44.7173L108.326 45.064C108.163 45.3518 107.935 45.5898 107.643 45.7778C107.357 45.9648 107.026 46.0921 106.651 46.1598C106.168 46.2468 105.721 46.2229 105.309 46.088C104.902 45.946 104.561 45.7121 104.287 45.3863C104.013 45.0604 103.835 44.6681 103.752 44.2093C103.669 43.7505 103.693 43.3217 103.824 42.9228C103.961 42.5228 104.185 42.1904 104.494 41.9255C104.809 41.6595 105.184 41.4873 105.618 41.4089C106.053 41.3304 106.462 41.3613 106.844 41.5016C107.226 41.6419 107.548 41.876 107.811 42.204C108.072 42.5261 108.244 42.9194 108.328 43.3842L108.354 43.5824ZM105.717 41.954C105.264 42.0357 104.909 42.2504 104.652 42.5983C104.399 42.9391 104.294 43.3456 104.336 43.8179L107.67 43.2167C107.545 42.7595 107.301 42.4158 106.94 42.1857C106.583 41.9485 106.176 41.8713 105.717 41.954Z" fill="#2A2A42"/>
<path d="M121.065 38.337C120.787 38.3378 120.575 38.4142 120.43 38.5659C120.291 38.7177 120.222 38.9419 120.223 39.2386L120.225 39.8017L121.696 39.7972L121.698 40.3421L120.245 40.3465L120.258 44.5785L119.613 44.5804L119.6 40.3484L118.746 40.351L118.745 39.8061L119.598 39.8035L119.597 39.2132C119.595 38.7773 119.718 38.4319 119.966 38.1768C120.219 37.9218 120.576 37.7936 121.036 37.7922C121.218 37.7916 121.394 37.8184 121.563 37.8723C121.733 37.9203 121.875 37.9925 121.991 38.089L121.774 38.571C121.586 38.4141 121.35 38.3361 121.065 38.337Z" fill="#2A2A42"/>
<path d="M128.21 44.83C127.752 44.783 127.35 44.6382 127.004 44.3957C126.658 44.1472 126.399 43.8284 126.226 43.4393C126.053 43.0503 125.99 42.6239 126.038 42.1601C126.085 41.6964 126.233 41.2917 126.482 40.9459C126.73 40.6002 127.049 40.3438 127.437 40.1768C127.826 40.0098 128.249 39.9498 128.707 39.9968C129.164 40.0439 129.566 40.1886 129.913 40.4312C130.259 40.6737 130.516 40.9891 130.683 41.3776C130.856 41.7666 130.919 42.193 130.871 42.6567C130.823 43.1205 130.675 43.5252 130.427 43.8709C130.184 44.2173 129.868 44.477 129.479 44.65C129.091 44.8171 128.668 44.8771 128.21 44.83ZM128.268 44.2609C128.606 44.2955 128.915 44.2512 129.195 44.1279C129.482 43.9991 129.716 43.8009 129.895 43.5333C130.075 43.2657 130.183 42.9513 130.22 42.5899C130.258 42.2286 130.215 41.8986 130.094 41.6001C129.972 41.3015 129.784 41.0631 129.528 40.8846C129.279 40.7008 128.986 40.5916 128.649 40.5569C128.312 40.5223 128 40.5693 127.712 40.6981C127.432 40.8214 127.199 41.0166 127.013 41.2835C126.834 41.5511 126.725 41.8656 126.688 42.227C126.651 42.5883 126.693 42.9183 126.815 43.2168C126.942 43.516 127.13 43.7575 127.379 43.9413C127.635 44.1197 127.931 44.2262 128.268 44.2609Z" fill="#2A2A42"/>
<path d="M136.768 39.0711L137.4 39.1996L136.056 45.8029L135.425 45.6744L136.768 39.0711Z" fill="#2A2A42"/>
<path d="M143.419 40.513L144.038 40.6918L142.169 47.1658L141.55 46.987L143.419 40.513Z" fill="#2A2A42"/>
<path d="M149.3 49.4765C148.873 49.3055 148.526 49.0559 148.259 48.7276C147.995 48.3936 147.833 48.0158 147.774 47.5942C147.714 47.1726 147.771 46.7454 147.944 46.3126C148.117 45.8798 148.371 45.5313 148.705 45.2671C149.039 45.003 149.416 44.8439 149.835 44.79C150.254 44.7361 150.678 44.7946 151.105 44.9656C151.532 45.1365 151.879 45.3861 152.145 45.7145C152.412 46.0428 152.572 46.4166 152.626 46.836C152.685 47.2576 152.628 47.6848 152.455 48.1176C152.282 48.5505 152.028 48.8989 151.694 49.1631C151.366 49.4295 150.991 49.5925 150.57 49.652C150.15 49.7059 149.727 49.6474 149.3 49.4765ZM149.512 48.9453C149.827 49.0712 150.136 49.1134 150.44 49.0719C150.751 49.0269 151.03 48.9005 151.276 48.6925C151.523 48.4846 151.713 48.212 151.848 47.8747C151.983 47.5374 152.033 47.2086 151.998 46.8882C151.964 46.5678 151.848 46.2867 151.651 46.0449C151.462 45.7998 151.21 45.6143 150.896 45.4883C150.581 45.3624 150.268 45.3219 149.956 45.3668C149.653 45.4083 149.375 45.532 149.123 45.7377C148.877 45.9456 148.686 46.2182 148.551 46.5555C148.416 46.8928 148.366 47.2216 148.401 47.542C148.442 47.8647 148.556 48.1486 148.745 48.3937C148.942 48.6355 149.198 48.8193 149.512 48.9453Z" fill="#2A2A42"/>
<path d="M164.403 51.3957L160.477 54.6627L159.948 54.363L160.564 50.2141L157.324 52.8779L156.794 52.5782L157.582 47.5353L158.12 47.8395L157.424 52.1104L160.759 49.3335L161.242 49.6064L160.57 53.8907L163.889 51.1049L164.403 51.3957Z" fill="#2A2A42"/>
<path d="M175.672 59.4589C176.007 59.757 176.241 60.1038 176.375 60.4992C176.513 60.89 176.536 61.2918 176.444 61.7045C176.352 62.1171 176.149 62.4997 175.834 62.8522C175.52 63.2047 175.163 63.4502 174.764 63.5889C174.365 63.7276 173.961 63.7529 173.553 63.6648C173.144 63.5767 172.773 63.3836 172.439 63.0854C172.141 62.8195 171.928 62.5165 171.801 62.1764C171.679 61.8404 171.653 61.4882 171.721 61.1197L171.093 61.8247L170.632 61.4137L175.116 56.384L175.598 56.8131L173.688 58.9551C174.042 58.8576 174.387 58.8528 174.723 58.9408C175.066 59.0283 175.383 59.201 175.672 59.4589ZM172.786 62.6282C173.034 62.8498 173.311 62.9947 173.615 63.0631C173.923 63.1269 174.228 63.1029 174.53 62.9913C174.837 62.8836 175.111 62.6942 175.353 62.4231C175.595 62.1519 175.752 61.8578 175.824 61.5406C175.9 61.2275 175.887 60.9238 175.784 60.6295C175.686 60.3307 175.512 60.0705 175.263 59.8489C175.01 59.6233 174.73 59.4786 174.422 59.4148C174.122 59.3505 173.819 59.3721 173.512 59.4798C173.21 59.5914 172.938 59.7829 172.696 60.054C172.454 60.3251 172.295 60.6173 172.219 60.9304C172.147 61.2476 172.158 61.5535 172.252 61.8483C172.355 62.1426 172.533 62.4025 172.786 62.6282Z" fill="#2A2A42"/>
<path d="M182.664 66.1753C183.074 66.6444 183.271 67.1079 183.254 67.5659C183.241 68.0198 183.005 68.4482 182.545 68.8511L180.317 70.8019L179.911 70.3373L180.471 69.8466C180.188 69.9009 179.901 69.8669 179.609 69.7446C179.32 69.6268 179.049 69.4222 178.793 69.1307C178.442 68.73 178.259 68.3274 178.243 67.923C178.226 67.5186 178.375 67.1788 178.69 66.9036C178.995 66.6363 179.336 66.5302 179.715 66.5852C180.097 66.6448 180.499 66.916 180.922 67.3988L181.922 68.5396L182.14 68.3482C182.45 68.0769 182.609 67.7849 182.616 67.4722C182.629 67.1556 182.489 66.831 182.198 66.4985C181.999 66.2708 181.769 66.0861 181.508 65.9444C181.251 65.7987 180.991 65.7086 180.727 65.674L180.898 65.1383C181.212 65.1848 181.522 65.2997 181.828 65.4829C182.138 65.6622 182.416 65.893 182.664 66.1753ZM179.242 68.8708C179.481 69.144 179.748 69.3247 180.043 69.4129C180.342 69.497 180.651 69.4832 180.972 69.3714L181.559 68.8568L180.572 67.7296C180.034 67.1147 179.55 66.9948 179.122 67.3698C178.913 67.5533 178.816 67.7786 178.833 68.0457C178.854 68.3088 178.99 68.5839 179.242 68.8708Z" fill="#2A2A42"/>
<path d="M185.088 76.8152C184.82 76.4264 184.664 76.0191 184.62 75.5932C184.58 75.1723 184.652 74.7698 184.835 74.3857C185.024 73.9981 185.31 73.672 185.694 73.4074C186.078 73.1427 186.482 72.9928 186.906 72.9576C187.331 72.9223 187.732 72.9983 188.112 73.1855C188.494 73.3777 188.819 73.6681 189.088 74.0569C189.321 74.3958 189.462 74.7437 189.51 75.1007C189.566 75.4592 189.52 75.8034 189.372 76.1332L188.83 75.9225C188.935 75.6589 188.966 75.3947 188.923 75.1301C188.885 74.862 188.786 74.6108 188.624 74.3765C188.428 74.0924 188.186 73.8804 187.899 73.7405C187.619 73.6022 187.318 73.549 186.994 73.5809C186.674 73.6179 186.364 73.7394 186.065 73.9457C185.761 74.1553 185.535 74.4032 185.387 74.6894C185.247 74.9771 185.19 75.2778 185.215 75.5914C185.248 75.9066 185.363 76.2063 185.559 76.4903C185.72 76.7246 185.917 76.9088 186.149 77.0428C186.382 77.1769 186.64 77.2417 186.923 77.2372L186.927 77.8191C186.567 77.8399 186.226 77.7621 185.906 77.5857C185.591 77.406 185.318 77.1491 185.088 76.8152Z" fill="#2A2A42"/>
<path d="M191.783 82.7067L190.341 82.1987L189.138 82.8385L188.835 82.2693L194.784 79.1044L195.087 79.6737L191.054 81.8191L194.694 83.1125L195.07 83.818L192.386 82.9311L190.942 86.23L190.571 85.5324L191.783 82.7067Z" fill="#2A2A42"/>
<path d="M198.579 99.2433L197.424 95.4178C196.96 95.596 196.629 95.8949 196.433 96.3145C196.243 96.7323 196.224 97.1934 196.376 97.6977C196.462 97.9817 196.59 98.2276 196.76 98.4355C196.936 98.6417 197.149 98.802 197.399 98.9164L197.104 99.3849C196.799 99.2555 196.537 99.0564 196.316 98.7877C196.098 98.5248 195.934 98.2107 195.823 97.8456C195.682 97.3761 195.654 96.929 195.741 96.5044C195.836 96.0838 196.029 95.7187 196.321 95.4092C196.614 95.0996 196.983 94.8775 197.429 94.7428C197.876 94.6081 198.304 94.583 198.716 94.6676C199.129 94.758 199.485 94.9415 199.783 95.2182C200.083 95.5007 200.297 95.8535 200.425 96.2766C200.553 96.6997 200.569 97.1091 200.473 97.5048C200.378 97.9004 200.182 98.2473 199.886 98.5452C199.596 98.8415 199.225 99.0578 198.773 99.1942L198.579 99.2433ZM199.895 96.4367C199.762 95.9962 199.508 95.6681 199.133 95.4524C198.765 95.2407 198.349 95.1829 197.885 95.2787L198.864 98.5217C199.304 98.3447 199.617 98.0635 199.804 97.6781C199.999 97.2968 200.029 96.883 199.895 96.4367Z" fill="#2A2A42"/>
<path d="M203.238 107.712L198.16 106.468L198.042 105.815L202.368 102.885L202.487 103.547L198.801 106.029L203.125 107.086L203.238 107.712Z" fill="#2A2A42"/>
<path d="M201.744 116.973L201.485 112.986C200.992 113.054 200.603 113.271 200.317 113.635C200.037 113.999 199.915 114.444 199.949 114.97C199.968 115.266 200.037 115.534 200.156 115.775C200.281 116.016 200.452 116.22 200.669 116.388L200.276 116.778C200.008 116.583 199.798 116.329 199.644 116.018C199.49 115.712 199.401 115.369 199.377 114.989C199.345 114.499 199.419 114.058 199.6 113.664C199.787 113.275 200.058 112.963 200.413 112.728C200.768 112.493 201.178 112.36 201.643 112.33C202.108 112.299 202.531 112.372 202.913 112.547C203.295 112.729 203.6 112.988 203.828 113.325C204.057 113.668 204.185 114.06 204.214 114.501C204.243 114.942 204.166 115.345 203.983 115.709C203.8 116.072 203.531 116.366 203.176 116.589C202.826 116.812 202.416 116.939 201.944 116.97L201.744 116.973ZM203.661 114.537C203.631 114.078 203.458 113.701 203.142 113.406C202.832 113.117 202.44 112.966 201.966 112.955L202.185 116.335C202.654 116.262 203.023 116.059 203.292 115.726C203.568 115.399 203.691 115.003 203.661 114.537Z" fill="#2A2A42"/>
<path d="M203.591 122.952C203.905 123.116 204.138 123.35 204.289 123.653C204.44 123.962 204.507 124.337 204.489 124.779L203.863 124.754L203.878 124.6C203.899 124.098 203.76 123.698 203.463 123.401C203.167 123.104 202.74 122.945 202.183 122.922L199.751 122.823L199.778 122.179L204.551 122.373L204.525 122.99L203.591 122.952Z" fill="#2A2A42"/>
<path d="M203.635 133.97L198.679 130.846C198.263 130.591 197.98 130.324 197.831 130.046C197.681 129.768 197.631 129.452 197.682 129.098C197.715 128.87 197.781 128.663 197.881 128.475C197.982 128.288 198.114 128.132 198.279 128.009L198.712 128.374C198.438 128.579 198.277 128.85 198.229 129.186C198.198 129.401 198.232 129.593 198.33 129.76C198.428 129.933 198.611 130.106 198.88 130.279L199.309 130.551L204.331 129.115L204.236 129.781L199.962 130.984L203.725 133.34L203.635 133.97Z" fill="#2A2A42"/>
<path d="M197.599 140.047C197.717 139.602 197.922 139.228 198.216 138.924C198.515 138.621 198.871 138.414 199.282 138.304C199.693 138.194 200.124 138.199 200.575 138.318C201.026 138.438 201.402 138.647 201.705 138.946C202.008 139.246 202.211 139.601 202.315 140.01C202.42 140.42 202.413 140.847 202.295 141.292C202.177 141.737 201.971 142.111 201.678 142.416C201.384 142.72 201.033 142.924 200.623 143.028C200.212 143.139 199.781 143.134 199.33 143.015C198.879 142.895 198.503 142.686 198.2 142.386C197.896 142.093 197.689 141.74 197.578 141.329C197.474 140.919 197.481 140.492 197.599 140.047ZM198.152 140.194C198.065 140.521 198.06 140.833 198.138 141.13C198.221 141.433 198.38 141.695 198.616 141.914C198.853 142.133 199.146 142.289 199.497 142.382C199.849 142.476 200.181 142.485 200.495 142.412C200.809 142.339 201.074 142.19 201.29 141.965C201.51 141.748 201.664 141.475 201.751 141.148C201.838 140.82 201.84 140.504 201.758 140.201C201.68 139.904 201.523 139.644 201.288 139.419C201.052 139.199 200.758 139.043 200.407 138.95C200.056 138.857 199.724 138.847 199.41 138.921C199.094 139 198.827 139.148 198.606 139.365C198.39 139.59 198.239 139.866 198.152 140.194Z" fill="#2A2A42"/>
<path d="M199.31 151.055C199.087 151.612 198.747 151.988 198.291 152.183C197.838 152.387 197.302 152.365 196.684 152.117L194.112 151.088L194.352 150.489L196.864 151.495C197.325 151.679 197.723 151.705 198.057 151.571C198.391 151.437 198.643 151.157 198.814 150.73C199.005 150.252 199.014 149.815 198.839 149.419C198.669 149.031 198.333 148.737 197.833 148.537L195.506 147.606L195.745 147.007L200.18 148.782L199.951 149.355L199.133 149.028C199.337 149.299 199.455 149.607 199.487 149.952C199.522 150.305 199.463 150.673 199.31 151.055Z" fill="#2A2A42"/>
<path d="M191.92 160.776L193.849 157.277C193.397 157.069 192.952 157.042 192.515 157.195C192.083 157.351 191.74 157.66 191.486 158.121C191.343 158.381 191.256 158.644 191.227 158.911C191.202 159.181 191.236 159.446 191.329 159.704L190.788 159.821C190.667 159.512 190.626 159.185 190.665 158.84C190.7 158.5 190.81 158.163 190.994 157.829C191.231 157.399 191.531 157.067 191.895 156.833C192.262 156.606 192.659 156.489 193.084 156.482C193.51 156.475 193.927 156.584 194.335 156.809C194.744 157.034 195.061 157.323 195.288 157.676C195.512 158.035 195.63 158.417 195.64 158.824C195.648 159.236 195.546 159.636 195.332 160.023C195.119 160.41 194.837 160.708 194.487 160.916C194.138 161.124 193.753 161.227 193.333 161.223C192.918 161.223 192.504 161.109 192.091 160.881L191.92 160.776ZM194.847 159.756C195.069 159.353 195.126 158.942 195.018 158.523C194.913 158.112 194.664 157.774 194.271 157.509L192.635 160.476C193.069 160.667 193.49 160.694 193.896 160.559C194.305 160.432 194.622 160.164 194.847 159.756Z" fill="#2A2A42"/>
<path d="M183.41 177.149L180.978 172.658L181.375 172.198L185.323 173.617L183.347 169.917L183.745 169.456L188.535 171.22L188.131 171.687L184.08 170.166L186.147 173.982L185.785 174.401L181.716 172.9L183.796 176.702L183.41 177.149Z" fill="#2A2A42"/>
<path d="M177.904 182.761C177.453 183.156 176.98 183.337 176.484 183.305C175.988 183.28 175.521 183.018 175.082 182.517L173.257 180.433L173.742 180.008L175.525 182.044C175.852 182.418 176.195 182.621 176.553 182.653C176.911 182.685 177.263 182.55 177.609 182.246C177.997 181.907 178.202 181.522 178.227 181.09C178.25 180.667 178.085 180.253 177.73 179.847L176.078 177.962L176.563 177.537L181.003 182.606L180.518 183.031L178.675 180.927C178.726 181.252 178.686 181.573 178.553 181.891C178.421 182.208 178.204 182.498 177.904 182.761Z" fill="#2A2A42"/>
<path d="M167.693 184.86C168.073 184.6 168.473 184.451 168.894 184.412C169.319 184.379 169.723 184.455 170.106 184.64C170.49 184.825 170.813 185.11 171.076 185.495C171.339 185.88 171.488 186.284 171.521 186.709C171.555 187.133 171.477 187.535 171.289 187.913C171.1 188.292 170.816 188.611 170.436 188.87C170.056 189.13 169.656 189.279 169.235 189.318C168.814 189.356 168.414 189.281 168.036 189.093C167.652 188.908 167.329 188.623 167.066 188.238C166.803 187.853 166.654 187.448 166.621 187.024C166.582 186.603 166.655 186.201 166.84 185.817C167.029 185.439 167.313 185.12 167.693 184.86ZM168.016 185.332C167.736 185.524 167.529 185.757 167.395 186.032C167.259 186.316 167.209 186.618 167.244 186.938C167.28 187.259 167.4 187.569 167.605 187.869C167.81 188.169 168.056 188.393 168.341 188.543C168.627 188.692 168.925 188.752 169.235 188.723C169.544 188.703 169.838 188.597 170.118 188.406C170.398 188.214 170.606 187.977 170.742 187.693C170.876 187.418 170.928 187.118 170.898 186.794C170.862 186.474 170.741 186.164 170.536 185.864C170.331 185.564 170.086 185.34 169.8 185.19C169.51 185.044 169.21 184.981 168.901 185.002C168.591 185.031 168.296 185.141 168.016 185.332Z" fill="#2A2A42"/>
<path d="M152.788 198.569C152.231 198.791 151.731 198.805 151.288 198.61C150.84 198.417 150.492 198.008 150.243 197.384L149.218 194.811L149.817 194.572L150.818 197.086C151.002 197.547 151.255 197.854 151.576 198.006C151.892 198.161 152.252 198.157 152.657 197.996C153.118 197.812 153.424 197.524 153.574 197.132C153.726 196.745 153.703 196.302 153.503 195.801L152.575 193.473L153.174 193.234L154.176 195.748C154.36 196.209 154.612 196.516 154.934 196.668C155.249 196.823 155.613 196.818 156.023 196.655C156.479 196.473 156.784 196.185 156.94 195.791C157.092 195.404 157.069 194.961 156.869 194.46L155.942 192.132L156.541 191.893L158.309 196.331L157.735 196.559L157.412 195.749C157.362 196.082 157.226 196.377 157.003 196.636C156.78 196.894 156.486 197.096 156.12 197.242C155.749 197.39 155.397 197.439 155.064 197.389C154.726 197.341 154.428 197.189 154.169 196.934C154.123 197.291 153.98 197.612 153.741 197.896C153.499 198.188 153.181 198.413 152.788 198.569Z" fill="#2A2A42"/>
<path d="M140.524 199.697L144.411 198.771C144.26 198.297 143.982 197.949 143.574 197.729C143.169 197.514 142.71 197.468 142.197 197.59C141.909 197.659 141.655 197.772 141.438 197.929C141.221 198.093 141.049 198.296 140.92 198.538L140.47 198.216C140.617 197.919 140.831 197.669 141.113 197.465C141.388 197.263 141.711 197.118 142.082 197.029C142.559 196.916 143.007 196.915 143.426 197.027C143.84 197.146 144.193 197.361 144.485 197.671C144.777 197.981 144.976 198.363 145.084 198.816C145.192 199.27 145.192 199.699 145.083 200.105C144.968 200.512 144.764 200.856 144.47 201.138C144.17 201.421 143.805 201.613 143.375 201.716C142.945 201.818 142.536 201.81 142.147 201.691C141.757 201.572 141.423 201.356 141.143 201.043C140.864 200.736 140.67 200.353 140.561 199.893L140.524 199.697ZM143.247 201.177C143.695 201.07 144.037 200.836 144.275 200.475C144.508 200.12 144.59 199.709 144.522 199.24L141.227 200.024C141.378 200.474 141.64 200.803 142.013 201.013C142.382 201.23 142.794 201.285 143.247 201.177Z" fill="#2A2A42"/>
<path d="M129.702 204.104C129.106 204.158 128.623 204.029 128.254 203.716C127.879 203.403 127.661 202.912 127.6 202.243L127.35 199.484L127.992 199.426L128.237 202.121C128.282 202.616 128.436 202.982 128.701 203.219C128.96 203.457 129.306 203.556 129.74 203.517C130.235 203.472 130.61 203.283 130.865 202.95C131.121 202.623 131.225 202.191 131.176 201.654L130.95 199.158L131.592 199.1L131.837 201.795C131.881 202.289 132.036 202.655 132.301 202.893C132.56 203.131 132.909 203.23 133.349 203.19C133.838 203.145 134.212 202.956 134.474 202.623C134.73 202.295 134.834 201.863 134.785 201.327L134.559 198.831L135.201 198.772L135.632 203.53L135.017 203.585L134.939 202.717C134.796 203.022 134.581 203.266 134.294 203.45C134.007 203.635 133.667 203.744 133.275 203.78C132.877 203.816 132.526 203.763 132.221 203.62C131.91 203.478 131.667 203.248 131.493 202.929C131.346 203.259 131.118 203.526 130.808 203.73C130.493 203.941 130.125 204.066 129.702 204.104Z" fill="#2A2A42"/>
<path d="M117.909 201.702L121.899 201.908C121.889 201.41 121.719 200.998 121.39 200.672C121.061 200.352 120.634 200.178 120.108 200.151C119.811 200.136 119.537 200.173 119.283 200.263C119.03 200.359 118.807 200.505 118.615 200.702L118.274 200.266C118.499 200.023 118.775 199.843 119.102 199.726C119.423 199.61 119.774 199.561 120.155 199.581C120.645 199.606 121.075 199.731 121.445 199.956C121.809 200.187 122.088 200.493 122.28 200.872C122.473 201.252 122.557 201.675 122.533 202.14C122.509 202.606 122.388 203.018 122.169 203.377C121.945 203.735 121.652 204.008 121.29 204.195C120.923 204.382 120.519 204.464 120.077 204.442C119.636 204.419 119.245 204.296 118.905 204.072C118.565 203.848 118.305 203.547 118.124 203.168C117.943 202.795 117.865 202.373 117.89 201.901L117.909 201.702ZM120.106 203.888C120.565 203.912 120.96 203.784 121.29 203.504C121.613 203.23 121.808 202.858 121.875 202.388L118.492 202.214C118.51 202.688 118.669 203.078 118.968 203.384C119.261 203.696 119.64 203.864 120.106 203.888Z" fill="#2A2A42"/>
<path d="M111.567 198.882C111.95 198.945 112.308 199.06 112.643 199.225C112.97 199.396 113.219 199.582 113.388 199.782L113.018 200.236C112.847 200.048 112.62 199.878 112.338 199.727C112.056 199.582 111.753 199.483 111.43 199.43C111 199.358 110.673 199.372 110.448 199.469C110.216 199.572 110.08 199.746 110.039 199.991C110.011 200.164 110.045 200.308 110.143 200.422C110.24 200.543 110.371 200.641 110.536 200.717C110.7 200.8 110.922 200.889 111.2 200.984C111.571 201.119 111.867 201.242 112.088 201.352C112.308 201.468 112.487 201.63 112.624 201.837C112.756 202.043 112.795 202.304 112.743 202.62C112.677 203.015 112.46 203.31 112.09 203.506C111.72 203.703 111.242 203.753 110.656 203.656C110.352 203.605 110.054 203.513 109.763 203.379C109.472 203.251 109.238 203.104 109.063 202.94L109.425 202.476C109.769 202.809 110.21 203.02 110.747 203.109C111.153 203.176 111.473 203.156 111.706 203.047C111.932 202.937 112.065 202.766 112.104 202.533C112.133 202.354 112.1 202.201 112.005 202.075C111.903 201.947 111.77 201.843 111.606 201.76C111.44 201.684 111.21 201.593 110.914 201.489C110.55 201.355 110.26 201.233 110.045 201.124C109.83 201.015 109.656 200.86 109.524 200.66C109.391 200.46 109.35 200.208 109.4 199.903C109.469 199.491 109.696 199.191 110.083 199.004C110.463 198.821 110.958 198.781 111.567 198.882Z" fill="#2A2A42"/>
<path d="M93.7763 199.362L95.419 194.876L95.9989 195.088L95.6991 195.907C95.9582 195.693 96.2551 195.56 96.5899 195.508C96.9226 195.462 97.2681 195.505 97.6262 195.636C98.2118 195.851 98.6158 196.182 98.8382 196.631C99.0529 197.084 99.0447 197.626 98.8136 198.257L97.8611 200.858L97.2556 200.636L98.1863 198.095C98.3591 197.623 98.3737 197.222 98.2301 196.892C98.0866 196.562 97.7987 196.318 97.3667 196.16C96.8948 195.987 96.4704 195.993 96.0934 196.177C95.7143 196.367 95.4311 196.718 95.2437 197.23L94.3818 199.583L93.7763 199.362Z" fill="#2A2A42"/>
<path d="M89.3064 192.317C89.6525 192.491 89.9606 192.707 90.2307 192.965C90.4927 193.226 90.6748 193.476 90.777 193.718L90.2888 194.041C90.1811 193.811 90.0152 193.582 89.7911 193.354C89.5642 193.131 89.3048 192.946 89.0127 192.799C88.6233 192.603 88.3068 192.519 88.063 192.545C87.8111 192.574 87.6294 192.7 87.5178 192.921C87.4389 193.078 87.429 193.226 87.4882 193.364C87.5447 193.508 87.6405 193.641 87.7755 193.763C87.9079 193.89 88.093 194.041 88.3308 194.215C88.6442 194.454 88.8901 194.659 89.0683 194.83C89.2439 195.007 89.3665 195.214 89.4363 195.453C89.5007 195.688 89.4607 195.949 89.3165 196.236C89.1369 196.593 88.8412 196.81 88.4294 196.888C88.0176 196.965 87.5468 196.87 87.0168 196.604C86.741 196.465 86.4842 196.288 86.2465 196.074C86.0061 195.865 85.8265 195.656 85.708 195.447L86.1921 195.111C86.4212 195.531 86.7791 195.864 87.2658 196.109C87.6336 196.294 87.9447 196.369 88.1993 196.335C88.4485 196.297 88.6262 196.173 88.7324 195.962C88.814 195.8 88.828 195.645 88.7742 195.495C88.715 195.344 88.6193 195.204 88.4869 195.076C88.3519 194.954 88.1587 194.799 87.9074 194.612C87.5993 194.376 87.3589 194.173 87.186 194.005C87.0132 193.837 86.8932 193.637 86.8261 193.407C86.759 193.177 86.7949 192.923 86.9337 192.648C87.1215 192.275 87.428 192.056 87.8533 191.992C88.2704 191.931 88.7548 192.039 89.3064 192.317Z" fill="#2A2A42"/>
<circle cx="122.5" cy="121.5" r="68" stroke="#242424"/>
<circle cx="123.823" cy="122.823" r="3.82338" fill="#F7A443"/>
</svg>
