<svg width="25" height="25" viewBox="0 0 25 25" fill="none" xmlns="http://www.w3.org/2000/svg">
<path d="M14.8052 12.7364L24.6745 2.86709C24.8963 2.6081 25.0121 2.27496 24.999 1.93424C24.9858 1.59352 24.8446 1.27031 24.6035 1.0292C24.3624 0.788095 24.0392 0.646848 23.6984 0.633687C23.3577 0.620527 23.0246 0.736422 22.7656 0.958213L12.8963 10.8275L3.02698 0.944674C2.76799 0.722884 2.43485 0.60699 2.09413 0.62015C1.75341 0.633311 1.4302 0.774557 1.18909 1.01566C0.947986 1.25677 0.806739 1.57998 0.793578 1.9207C0.780418 2.26142 0.896313 2.59457 1.1181 2.85355L10.9874 12.7364L1.10457 22.6057C0.962846 22.7271 0.847744 22.8764 0.766483 23.0444C0.685223 23.2123 0.639558 23.3953 0.632356 23.5817C0.625155 23.7682 0.656571 23.9541 0.724634 24.1278C0.792696 24.3016 0.895936 24.4593 1.02787 24.5913C1.15981 24.7232 1.31759 24.8264 1.49132 24.8945C1.66505 24.9626 1.85097 24.994 2.03742 24.9868C2.22386 24.9796 2.40681 24.9339 2.57477 24.8527C2.74273 24.7714 2.89208 24.6563 3.01344 24.5146L12.8963 14.6453L22.7656 24.5146C23.0246 24.7364 23.3577 24.8523 23.6984 24.8391C24.0392 24.8259 24.3624 24.6847 24.6035 24.4436C24.8446 24.2025 24.9858 23.8793 24.999 23.5385C25.0121 23.1978 24.8963 22.8647 24.6745 22.6057L14.8052 12.7364Z" fill="#5D5D5D"/>
</svg>
