<svg width="135" height="173" viewBox="0 0 135 173" fill="none" xmlns="http://www.w3.org/2000/svg">
<path d="M72.9523 10.7886C71.4421 -1.18033 82.6551 9.56432 94.624 8.05406C106.593 6.54381 114.785 -6.64943 116.296 5.31951C117.806 17.2885 109.328 28.2155 97.3586 29.7258C85.3896 31.236 74.4626 22.7576 72.9523 10.7886Z" fill="#F7A443"/>
<ellipse cx="74.3639" cy="39.7171" rx="11.1069" ry="10.7367" transform="rotate(172.808 74.3639 39.7171)" fill="#F7A443"/>
<circle cx="99.6297" cy="47.7244" r="10.7367" transform="rotate(172.808 99.6297 47.7244)" fill="#F7A443"/>
<ellipse cx="122.115" cy="33.6924" rx="11.1069" ry="10.7367" transform="rotate(172.808 122.115 33.6924)" fill="#F7A443"/>
<path d="M10.9523 123.789C9.44208 111.82 20.6551 122.564 32.624 121.054C44.593 119.544 52.7855 106.351 54.2957 118.32C55.806 130.288 47.3275 141.216 35.3586 142.726C23.3896 144.236 12.4626 135.758 10.9523 123.789Z" fill="#F7A443"/>
<ellipse cx="12.3639" cy="152.717" rx="11.1069" ry="10.7367" transform="rotate(172.808 12.3639 152.717)" fill="#F7A443"/>
<circle cx="37.6297" cy="160.724" r="10.7367" transform="rotate(172.808 37.6297 160.724)" fill="#F7A443"/>
<ellipse cx="60.1149" cy="146.692" rx="11.1069" ry="10.7367" transform="rotate(172.808 60.1149 146.692)" fill="#F7A443"/>
</svg>
