<svg width="248" height="137" viewBox="0 0 248 137" fill="none" xmlns="http://www.w3.org/2000/svg">
<path d="M243.54 68.5314C243.54 74.4151 240.372 80.0797 234.513 85.291C228.654 90.5018 220.148 95.2174 209.594 99.1877C188.489 107.127 159.3 112.048 127.034 112.048C94.7685 112.048 65.5795 107.127 44.4752 99.1877C33.9212 95.2174 25.415 90.5018 19.5562 85.291C13.697 80.0797 10.5291 74.4151 10.5291 68.5314C10.5291 62.6478 13.697 56.9832 19.5562 51.7719C25.415 46.561 33.9212 41.8455 44.4752 37.8752C65.5795 29.9359 94.7685 25.0151 127.034 25.0151C159.3 25.0151 188.489 29.9359 209.594 37.8752C220.148 41.8455 228.654 46.561 234.513 51.7719C240.372 56.9832 243.54 62.6478 243.54 68.5314Z" stroke="#DFECF6"/>
<path d="M237.508 43.0877C238.777 48.8329 236.906 55.0475 232.309 61.4001C227.712 67.7523 220.424 74.1919 210.975 80.3456C192.08 92.651 164.64 103.753 133.134 110.714C101.628 117.675 72.0651 119.168 49.7449 115.968C38.5829 114.369 29.2596 111.599 22.4146 107.775C15.5691 103.951 11.2537 99.1028 9.98435 93.3577C8.715 87.6126 10.5862 81.398 15.1832 75.0453C19.7798 68.6932 27.0684 62.2536 36.5173 56.0998C55.4118 43.7945 82.8518 32.6923 114.358 25.7312C145.864 18.7701 175.427 17.2778 197.747 20.477C208.909 22.0769 218.233 24.8462 225.078 28.6704C231.923 32.4949 236.238 37.3426 237.508 43.0877Z" stroke="#DFECF6"/>
</svg>
