<svg width="211" height="1751" viewBox="0 0 211 1751" fill="none" xmlns="http://www.w3.org/2000/svg">
<path d="M176.701 1744.45C177.682 1744.96 178.067 1746.16 177.56 1747.15C177.053 1748.13 175.847 1748.51 174.866 1748.01L176.701 1744.45ZM70.8257 810.38L68.9785 811.147L68.9785 811.147L70.8257 810.38ZM206.701 384.989L204.702 384.913L204.702 384.913L206.701 384.989ZM72.926 3.11186C73.7155 2.33936 74.9818 2.35314 75.7543 3.14264C76.5268 3.93215 76.513 5.1984 75.7235 5.9709L72.926 3.11186ZM174.866 1748.01C169.994 1745.49 165.235 1742.99 160.59 1740.51L162.476 1736.98C167.103 1739.45 171.845 1741.94 176.701 1744.45L174.866 1748.01ZM132.538 1724.87C122.859 1719.22 113.766 1713.62 105.246 1708.02L107.443 1704.68C115.896 1710.23 124.927 1715.8 134.554 1721.42L132.538 1724.87ZM79.0388 1689.4C70.0802 1682.46 61.9575 1675.46 54.6434 1668.33L57.4347 1665.47C64.6265 1672.48 72.6326 1679.38 81.4882 1686.23L79.0388 1689.4ZM33.3239 1644.15C26.6975 1635.22 21.1785 1625.99 16.7193 1616.36L20.349 1614.68C24.6872 1624.05 30.0635 1633.04 36.5365 1641.77L33.3239 1644.15ZM6.37814 1585.71C4.10471 1575.52 2.77421 1564.87 2.33312 1553.64L6.33004 1553.48C6.7626 1564.49 8.06594 1574.91 10.2821 1584.84L6.37814 1585.71ZM3.30492 1521.41C4.23811 1511.27 5.7381 1500.68 7.77593 1489.58L11.7102 1490.3C9.69084 1501.3 8.20883 1511.77 7.2881 1521.78L3.30492 1521.41ZM14.6056 1458.16C17.0671 1448.22 19.8769 1437.9 23.0196 1427.16L26.8585 1428.29C23.7293 1438.98 20.9345 1449.25 18.4883 1459.13L14.6056 1458.16ZM32.4742 1396.62C35.6648 1386.78 39.088 1376.63 42.7345 1366.13L46.5131 1367.44C42.8743 1377.92 39.4599 1388.05 36.2789 1397.85L32.4742 1396.62ZM53.4335 1336.05C55.2423 1331.07 57.094 1326.01 58.9877 1320.89L62.7399 1322.27C60.8486 1327.39 58.9994 1332.44 57.1932 1337.41L53.4335 1336.05ZM58.9877 1320.89C60.9859 1315.48 62.9544 1310.19 64.8926 1305.01L68.6385 1306.42C66.7023 1311.58 64.7359 1316.87 62.7399 1322.27L58.9877 1320.89ZM76.7649 1273.69C80.9699 1262.72 85.0008 1252.3 88.8468 1242.38L92.5764 1243.82C88.7308 1253.74 84.7023 1264.15 80.5001 1275.12L76.7649 1273.69ZM100.955 1211.07C105.199 1200.03 109.14 1189.62 112.761 1179.73L116.518 1181.11C112.886 1191.03 108.936 1201.45 104.689 1212.51L100.955 1211.07ZM123.715 1148.18C127.333 1136.98 130.407 1126.36 132.904 1116.07L136.791 1117.01C134.266 1127.42 131.162 1138.14 127.521 1149.4L123.715 1148.18ZM138.946 1083.37C140.28 1072.39 140.856 1061.45 140.623 1050.19L144.622 1050.11C144.859 1061.56 144.273 1072.69 142.917 1083.86L138.946 1083.37ZM137.75 1017.11C136.209 1006.74 134.046 995.891 131.224 984.344L135.11 983.394C137.957 995.045 140.146 1006.01 141.706 1016.52L137.75 1017.11ZM122.247 952.166C119.149 942.154 115.641 931.61 111.705 920.432L115.478 919.104C119.428 930.321 122.953 940.915 126.068 950.984L122.247 952.166ZM100.206 889.105C96.4161 879.133 92.3405 868.693 87.9715 857.732L91.6872 856.251C96.0628 867.228 100.146 877.688 103.945 887.684L100.206 889.105ZM75.4541 826.828C73.351 821.707 71.1927 816.481 68.9785 811.147L72.6729 809.613C74.8889 814.952 77.0491 820.182 79.1543 825.309L75.4541 826.828ZM68.9785 811.147C66.8201 805.947 65.1049 800.682 63.7989 795.355L67.6838 794.402C68.9418 799.534 70.5938 804.604 72.6729 809.613L68.9785 811.147ZM60.6106 762.462C61.0026 751.766 62.6531 740.879 65.3065 729.819L69.1961 730.752C66.5932 741.601 64.9886 752.222 64.6079 762.609L60.6106 762.462ZM75.1187 698.502C78.8739 688.579 83.219 678.524 87.9904 668.349L91.612 670.048C86.8734 680.153 82.5709 690.112 78.8597 699.918L75.1187 698.502ZM102.589 639.062C107.551 629.572 112.744 619.982 118.045 610.303L121.553 612.225C116.258 621.894 111.079 631.459 106.134 640.915L102.589 639.062ZM133.761 581.715C138.96 572.228 144.15 562.663 149.224 553.024L152.763 554.888C147.674 564.555 142.472 574.141 137.269 583.638L133.761 581.715ZM163.948 523.985C168.696 514.182 173.219 504.313 177.409 494.384L181.095 495.939C176.873 505.943 172.32 515.875 167.548 525.729L163.948 523.985ZM189 464.052C192.502 453.723 195.536 443.341 197.985 432.91L201.879 433.824C199.397 444.395 196.326 454.902 192.788 465.336L189 464.052ZM203.514 401.035C204.097 395.672 204.499 390.298 204.702 384.913L208.7 385.065C208.492 390.547 208.084 396.015 207.49 401.468L203.514 401.035ZM204.702 384.913C204.92 379.152 204.996 373.444 204.938 367.79L208.938 367.749C208.997 373.466 208.92 379.238 208.7 385.065L204.702 384.913ZM202.961 333.631C201.747 322.103 200.009 310.826 197.829 299.807L201.752 299.03C203.956 310.162 205.712 321.559 206.939 333.213L202.961 333.631ZM189.759 266.547C186.561 255.403 182.958 244.559 179.047 234.022L182.797 232.63C186.741 243.255 190.376 254.196 193.604 265.444L189.759 266.547ZM166.033 202.327C161.249 191.675 156.225 181.391 151.085 171.485L154.636 169.643C159.806 179.608 164.863 189.96 169.682 200.688L166.033 202.327ZM134.569 141.404C128.603 131.065 122.654 121.232 116.903 111.917L120.307 109.815C126.071 119.152 132.041 129.021 138.034 139.405L134.569 141.404ZM98.6693 82.7404C91.9159 71.9327 85.8504 62.0448 80.9194 53.1407L84.4186 51.2028C89.2937 60.0059 95.3095 69.8152 102.062 80.6207L98.6693 82.7404ZM67.8786 20.699C66.9469 13.669 68.2928 7.64525 72.926 3.11186L75.7235 5.9709C72.2584 9.36136 71.0215 13.9683 71.8439 20.1734L67.8786 20.699ZM177.619 1742.67C179.581 1743.69 180.351 1746.1 179.337 1748.06C178.324 1750.03 175.911 1750.8 173.948 1749.78L177.619 1742.67ZM70.8257 810.38L67.1313 811.913L67.1313 811.913L70.8257 810.38ZM206.701 384.989L202.704 384.838L202.704 384.838L206.701 384.989ZM71.5273 1.68234C73.1063 0.137339 75.6388 0.164901 77.1838 1.74391C78.7288 3.32291 78.7012 5.85542 77.1222 7.40042L71.5273 1.68234ZM173.948 1749.78C169.068 1747.26 164.301 1744.76 159.647 1742.27L163.419 1735.22C168.037 1737.69 172.77 1740.17 177.619 1742.67L173.948 1749.78ZM131.53 1726.6C121.824 1720.94 112.702 1715.31 104.147 1709.69L108.541 1703.01C116.961 1708.54 125.962 1714.09 135.562 1719.69L131.53 1726.6ZM77.8142 1690.98C68.8039 1684 60.6229 1676.95 53.2477 1669.77L58.8304 1664.04C65.9611 1670.98 73.9088 1677.83 82.7129 1684.65L77.8142 1690.98ZM31.7176 1645.34C25.0145 1636.3 19.4241 1626.96 14.9044 1617.2L22.1639 1613.84C26.4415 1623.08 31.7465 1631.95 38.1428 1640.57L31.7176 1645.34ZM4.42615 1586.15C2.1241 1575.83 0.780012 1565.05 0.334665 1553.72L8.3285 1553.4C8.7568 1564.3 10.0466 1574.6 12.2341 1584.4L4.42615 1586.15ZM1.31333 1521.23C2.25275 1511.02 3.76174 1500.37 5.80881 1489.21L13.6773 1490.66C11.6672 1501.61 10.1942 1512.02 9.27969 1521.96L1.31333 1521.23ZM12.6642 1457.68C15.1333 1447.71 17.9507 1437.36 21.1001 1426.6L28.778 1428.85C25.6555 1439.52 22.8682 1449.76 20.4296 1459.61L12.6642 1457.68ZM30.5719 1396C33.7672 1386.15 37.1949 1375.98 40.8451 1365.47L48.4024 1368.1C44.7674 1378.56 41.3575 1388.68 38.1812 1398.47L30.5719 1396ZM51.5536 1335.36C53.3638 1330.38 55.2167 1325.32 57.1116 1320.19L64.6161 1322.97C62.7258 1328.08 60.8779 1333.13 59.073 1338.1L51.5536 1335.36ZM57.1116 1320.19C59.1109 1314.78 61.0805 1309.49 63.0196 1304.31L70.5114 1307.12C68.5763 1312.28 66.6109 1317.56 64.6161 1322.97L57.1116 1320.19ZM74.8973 1272.98C79.1038 1262 83.1358 1251.58 86.982 1241.66L94.4412 1244.55C90.5958 1254.47 86.5684 1264.87 82.3677 1275.84L74.8973 1272.98ZM99.0881 1210.36C103.33 1199.31 107.267 1188.92 110.883 1179.05L118.396 1181.8C114.759 1191.73 110.805 1202.16 106.556 1213.23L99.0881 1210.36ZM121.812 1147.56C125.418 1136.4 128.478 1125.83 130.961 1115.6L138.735 1117.49C136.195 1127.95 133.077 1138.71 129.425 1150.02L121.812 1147.56ZM136.961 1083.13C138.283 1072.24 138.854 1061.39 138.623 1050.23L146.622 1050.07C146.86 1061.61 146.269 1072.84 144.903 1084.1L136.961 1083.13ZM135.771 1017.4C134.241 1007.1 132.09 996.315 129.281 984.819L137.052 982.919C139.912 994.621 142.114 1005.65 143.685 1016.22L135.771 1017.4ZM120.336 952.757C117.247 942.773 113.747 932.254 109.819 921.096L117.364 918.439C121.321 929.677 124.855 940.295 127.979 950.393L120.336 952.757ZM98.3368 889.815C94.551 879.855 90.4794 869.425 86.1137 858.473L93.545 855.51C97.9239 866.496 102.011 876.966 105.815 886.973L98.3368 889.815ZM73.6041 827.588C71.502 822.469 69.3446 817.246 67.1313 811.913L74.5201 808.846C76.7369 814.187 78.8982 819.42 81.0044 824.549L73.6041 827.588ZM67.1313 811.913C64.9333 806.618 63.1864 801.256 61.8564 795.831L69.6263 793.926C70.8603 798.959 72.4806 803.933 74.5201 808.846L67.1313 811.913ZM58.6119 762.389C59.0097 751.538 60.683 740.517 63.3616 729.353L71.1409 731.219C68.5633 741.962 66.9816 752.45 66.6066 762.682L58.6119 762.389ZM73.2481 697.794C77.0254 687.813 81.3919 677.71 86.1797 667.5L93.4228 670.897C88.7006 680.967 84.4194 690.878 80.7303 700.626L73.2481 697.794ZM100.817 638.135C105.788 628.629 110.988 619.026 116.291 609.343L123.308 613.185C118.014 622.85 112.842 632.402 107.906 641.842L100.817 638.135ZM132.007 580.754C137.204 571.271 142.387 561.717 147.454 552.093L154.533 555.819C149.436 565.501 144.229 575.098 139.023 584.599L132.007 580.754ZM162.148 523.114C166.884 513.335 171.392 503.498 175.567 493.606L182.937 496.717C178.7 506.757 174.133 516.722 169.348 526.601L162.148 523.114ZM187.105 463.41C190.59 453.134 193.605 442.813 196.038 432.452L203.826 434.281C201.327 444.922 198.238 455.491 194.682 465.979L187.105 463.41ZM201.525 400.819C202.104 395.5 202.502 390.173 202.704 384.838L210.698 385.14C210.489 390.671 210.077 396.186 209.478 401.685L201.525 400.819ZM202.704 384.838C202.921 379.109 202.996 373.433 202.938 367.811L210.938 367.729C210.997 373.477 210.92 379.281 210.698 385.14L202.704 384.838ZM200.972 333.841C199.765 322.375 198.036 311.158 195.867 300.195L203.714 298.642C205.929 309.831 207.695 321.287 208.928 333.003L200.972 333.841ZM187.837 267.099C184.654 256.007 181.067 245.211 177.172 234.718L184.672 231.934C188.632 242.603 192.284 253.592 195.526 264.892L187.837 267.099ZM164.209 203.147C159.442 192.533 154.435 182.283 149.31 172.407L156.411 168.722C161.597 178.716 166.67 189.102 171.507 199.869L164.209 203.147ZM132.837 142.404C126.884 132.088 120.946 122.272 115.201 112.967L122.008 108.764C127.779 118.111 133.761 127.999 139.766 138.405L132.837 142.404ZM96.9732 83.8003C90.2191 72.9914 84.1288 63.0642 79.1697 54.1096L86.1682 50.2339C91.0154 58.9865 97.0062 68.7565 103.758 79.5609L96.9732 83.8003ZM65.8959 20.9617C64.9096 13.5194 66.3101 6.7872 71.5273 1.68234L77.1222 7.40042C74.2412 10.2194 73.0588 14.1179 73.8266 19.9107L65.8959 20.9617Z" fill="#F7A443"/>
</svg>
