<svg width="13" height="13" viewBox="0 0 13 13" fill="none" xmlns="http://www.w3.org/2000/svg">
<path d="M5.9984 1.42613C6.17173 0.96896 6.82769 0.96896 7.00156 1.42613L8.12281 4.53204C8.20136 4.73788 8.40123 4.87492 8.6244 4.87492H11.3799C11.889 4.87492 12.1111 5.50867 11.7108 5.81904L9.74998 7.58325C9.66215 7.65077 9.59796 7.74438 9.56662 7.85065C9.53529 7.95691 9.53842 8.07037 9.57556 8.17475L10.2916 11.2097C10.4661 11.6972 9.90165 12.1159 9.47481 11.8158L6.81144 10.1258C6.72023 10.0617 6.61146 10.0273 6.49998 10.0273C6.3885 10.0273 6.27973 10.0617 6.18852 10.1258L3.52515 11.8158C3.09886 12.1159 2.5339 11.6967 2.70831 11.2097L3.4244 8.17475C3.46154 8.07037 3.46467 7.95691 3.43334 7.85065C3.402 7.74438 3.33782 7.65077 3.24998 7.58325L1.28915 5.81904C0.888314 5.50867 1.11148 4.87492 1.61956 4.87492H4.37502C4.48351 4.87528 4.58956 4.84269 4.67912 4.78147C4.76869 4.72024 4.83755 4.63326 4.87661 4.53204L5.99786 1.42613H5.9984Z" stroke="#B1D3F8" stroke-width="2" stroke-linecap="round" stroke-linejoin="round"/>
</svg>
